<svg id="图层_1" data-name="图层 1" xmlns="http://www.w3.org/2000/svg" viewBox="0 0 100 111.43"><path d="M852.6,584H783.9l48.66-39.87a5.86,5.86,0,0,0,2.15-4.11,5,5,0,0,0-2.15-4.11L783.9,496h68.7c4.29,0,7.15-2.35,7.15-5.87s-2.86-5.86-7.15-5.86H766.73a5.08,5.08,0,0,0-2.86.58,8,8,0,0,0-3.58,2.93,5.34,5.34,0,0,0,0,4.7c.71.58.71,1.17,1.43,1.76L817.53,540l-55.81,45.74c-.72.59-1.43,1.18-1.43,1.76a5.34,5.34,0,0,0,0,4.7,8,8,0,0,0,3.58,2.93,5.08,5.08,0,0,0,2.86.58H852.6c4.29,0,7.15-2.34,7.15-5.86S856.17,584,852.6,584Z" transform="translate(-759.75 -484.29)"/></svg>