<svg id="图层_1" data-name="图层 1" xmlns="http://www.w3.org/2000/svg" viewBox="0 0 100 121.69"><rect y="42.92" width="100" height="35.77"/><rect x="0.18" y="85.84" width="57.26" height="35.78"/><rect x="0.18" width="57.26" height="35.77"/><polygon points="97.25 4.48 92.83 0.07 79.65 13.24 66.47 0.07 62.06 4.48 75.24 17.66 62.06 30.84 66.47 35.25 79.65 22.07 92.83 35.25 97.25 30.84 84.06 17.66 97.25 4.48"/><polygon points="96.94 90.92 92.52 86.5 79.33 99.68 66.16 86.5 61.74 90.91 74.92 104.09 61.74 117.27 66.16 121.69 79.34 108.51 92.52 121.69 96.93 117.27 83.75 104.09 96.94 90.92"/></svg>