<svg id="图层_1" data-name="图层 1" xmlns="http://www.w3.org/2000/svg" viewBox="0 0 100 75.53"><path d="M833.68,557l-.4-.4a1.91,1.91,0,0,0-2.69,0l-7.18,7.19-7.19-7.19a1.91,1.91,0,0,0-2.69,0l-.39.4a1.89,1.89,0,0,0,0,2.69l7.18,7.18-7.21,7.19a1.91,1.91,0,0,0,0,2.69l.4.39a1.89,1.89,0,0,0,2.69,0l7.19-7.18,7.18,7.18a1.89,1.89,0,0,0,2.69,0l.4-.39a1.91,1.91,0,0,0,0-2.69l-7.17-7.19,7.19-7.18a1.89,1.89,0,0,0,0-2.69Zm33.48-39.2H854.65v-9.38a6.24,6.24,0,0,0-6.24-6.25H779.65a6.24,6.24,0,0,0-6.24,6.25v21.88a6.25,6.25,0,0,0,6.24,6.25h12.5V546a6.24,6.24,0,0,0,6.25,6.24h68.76a6.24,6.24,0,0,0,6.25-6.25V524.08A6.25,6.25,0,0,0,867.16,517.83Zm-50-9.37h28.13a3.11,3.11,0,0,1,2.21.91,3.15,3.15,0,0,1,.91,2.21v6.25H817.15Zm-25,15.62v6.24h-9.38a3.11,3.11,0,0,1-3.12-3.12V511.58a3.15,3.15,0,0,1,.91-2.21,3.11,3.11,0,0,1,2.21-.91H810.9v9.38H798.41A6.25,6.25,0,0,0,792.15,524.08ZM829.66,546H801.52a3.11,3.11,0,0,1-3.11-3.12V527.2a3.11,3.11,0,0,1,3.11-3.11h28.13V546Zm37.5-3.12a3.11,3.11,0,0,1-3.11,3.12H835.91V524.08H864a3.11,3.11,0,0,1,3.11,3.11v15.64Z" transform="translate(-773.41 -502.2)"/></svg>