<svg id="图层_1" data-name="图层 1" xmlns="http://www.w3.org/2000/svg" viewBox="0 0 100 88.15"><path d="M857.53,496.29l3.53,3.53a1.24,1.24,0,0,1,0,1.76h0l-5.33,5.32h.15l-7.35,7.35h-.15l-11,11v.15L831,531.77v-.15l-4.69,4.68v.15L820,542.78v-.14l-5.27,5.27v.14l-6,6,0-.13-5,5v.14l-.78.78h-.14l-8.19,8.19h.15l-7.55,7.55H787l-8.11,8.11a1.25,1.25,0,0,1-1.77,0l-3.53-3.52a1.25,1.25,0,0,1,0-1.77h0l3-3a6.26,6.26,0,0,1-4.87-6.1v-56.2a6.24,6.24,0,0,1,6.24-6.24h67.16l10.62-10.62a1.24,1.24,0,0,1,1.76,0Zm8,10.62a6.24,6.24,0,0,1,6.25,6.24h0v56.2a6.25,6.25,0,0,1-6.25,6.25H796l7.55-7.55h61V514.26h-7.26l7.35-7.35Zm-27.7,7.35H779.37v53.79H784l12.42-12.42-4.85-10.86v15.1h-6.33V522.74h5.54l6.6,21.34V522.74h6.34v25.6l4.69-4.69V522.74h6.34v14.57L820,532v-9.3h6.34v3l11.44-11.44Zm-11.45,31v6.31a8.37,8.37,0,0,1-2.36,6.08,9.07,9.07,0,0,1-6.61,2.56,9.52,9.52,0,0,1-4.78-1.18l4.4-4.4.38,0A2.39,2.39,0,0,0,820,552.5l0-.61v-.28Zm11-11v20.07h6.17v5.56H831V540.59l6.34-6.35Zm16-11.5v31.57h6.74v5.56H847.07V524.55l1.81-1.81Z" transform="translate(-771.74 -495.92)"/></svg>