<svg id="图层_1" data-name="图层 1" xmlns="http://www.w3.org/2000/svg" viewBox="0 0 100 100"><path d="M586.79,539.55l-19-15.08a.57.57,0,0,0-.93.45v10.79H549.14V498.59h25.75v16.16a.5.5,0,0,0,.51.5H583a.5.5,0,0,0,.5-.5V493.54A3.53,3.53,0,0,0,580,490H544.09a3.53,3.53,0,0,0-3.54,3.54v92.92a3.53,3.53,0,0,0,3.54,3.54H580a3.53,3.53,0,0,0,3.53-3.54V565.25a.5.5,0,0,0-.5-.5H575.4a.5.5,0,0,0-.51.5v16.16H549.14V544.29h17.67v10.79a.57.57,0,0,0,.93.45l19-15.08A.56.56,0,0,0,586.79,539.55ZM637,490H601.16a3.53,3.53,0,0,0-3.54,3.54v21.21a.5.5,0,0,0,.51.5h7.57a.5.5,0,0,0,.51-.5V498.59H632v37.12H614.29V524.92a.57.57,0,0,0-.92-.45L594.3,539.55a.56.56,0,0,0,0,.89l19.07,15.09a.57.57,0,0,0,.92-.45V544.29H632v37.12H606.21V565.25a.5.5,0,0,0-.51-.5h-7.57a.5.5,0,0,0-.51.5v21.21a3.53,3.53,0,0,0,3.54,3.54H637a3.53,3.53,0,0,0,3.53-3.54V493.54A3.53,3.53,0,0,0,637,490Z" transform="translate(-540.55 -490)"/></svg>