<svg id="图层_1" data-name="图层 1" xmlns="http://www.w3.org/2000/svg" viewBox="0 0 100 107.72"><path d="M622.17,588.14c-1.38,0-4.14,0-5.51-1.38l-26.09-28.84a6.82,6.82,0,0,1,9.64-9.64l26.09,28.84a6.66,6.66,0,0,1,0,9.64c0,1.38-1.38,1.38-4.13,1.38Z" transform="translate(-533.87 -486.32)"/><path d="M588.88,486.69c2.76,0,9.64,1.38,9.64,8.26,0,5.51-8.26,4.13-11,4.13-12.4,0-16.53,6.89-17.91,12.4L566.85,528h13.77a5.51,5.51,0,1,1,0,11H565.55l-9.64,42.62S554.53,594,546.27,594s-4.13-12.39-4.13-12.39l9.64-41.24h-12.4a5.93,5.93,0,0,1-5.51-5.51c0-5.51,2.76-6.89,5.51-6.89h15.15l4.13-18C561.42,486.69,582.07,485.31,588.88,486.69Z" transform="translate(-533.87 -486.32)"/><path d="M591.94,590.9a5.06,5.06,0,0,1-4.13-1.38q-4.12-4.14,0-8.26l35.73-37.11q4.14-4.14,8.27,0t0,8.26l-35.73,37.11A5.07,5.07,0,0,1,591.94,590.9Z" transform="translate(-533.87 -486.32)"/></svg>