<svg id="图层_1" data-name="图层 1" xmlns="http://www.w3.org/2000/svg" viewBox="0 0 38.57 35"><path d="M957,556.54l.32-1.88a17.44,17.44,0,0,1-13.07-15.37h3.19a14.37,14.37,0,0,0,10.46,12.24l.48-2.68,6,5Z" transform="translate(-941.22 -523)"/><path d="M967.35,558l4.57-7-4.14-6.39h3.15l2.69,4.29,2.62-4.29h3.13l-4.16,6.49,4.57,6.88h-3.25l-3-4.62-3,4.62Z" transform="translate(-941.22 -523)"/><path d="M941.22,536.41V523h2.63l5.49,9v-9h2.52v13.41h-2.72l-5.41-8.74v8.74Z" transform="translate(-941.22 -523)"/><path d="M966.82,536.41h-3l-1.17-3h-5.36l-1.11,3h-2.87L958.58,523h2.87Zm-5-5.3-1.85-5-1.81,5Z" transform="translate(-941.22 -523)"/></svg>