<svg id="图层_1" data-name="图层 1" xmlns="http://www.w3.org/2000/svg" viewBox="0 0 100 86.67"><path d="M766.41,538.53,782.25,524a2,2,0,0,1,1.46-.62,2.1,2.1,0,0,1,2.08,2.08v11.26h10a3.33,3.33,0,1,1,0,6.66h-10v11.26a2.06,2.06,0,0,1-3.54,1.46l-15.84-14.58a2.05,2.05,0,0,1,0-2.94Zm72.1,0L822.67,524a2,2,0,0,0-1.46-.62,2.1,2.1,0,0,0-2.08,2.08v11.26h-10a3.33,3.33,0,1,0,0,6.66h10v11.26a2.12,2.12,0,0,0,2.08,2.08,2,2,0,0,0,1.46-.62l15.84-14.59a2,2,0,0,0,.62-1.46A2,2,0,0,0,838.51,538.53Zm-46-35.2v13.34h6.67V503.33a6.66,6.66,0,0,0-6.67-6.66H759.13a6.66,6.66,0,0,0-6.67,6.66v73.34a6.66,6.66,0,0,0,6.67,6.66h33.33a6.66,6.66,0,0,0,6.67-6.66V563.33h-6.67v13.34H759.13V503.33h33.33m20,0h33.33v73.34H812.46V563.33h-6.67v13.34a6.66,6.66,0,0,0,6.67,6.66h33.33a6.66,6.66,0,0,0,6.67-6.66V503.33a6.66,6.66,0,0,0-6.67-6.66H812.46a6.66,6.66,0,0,0-6.67,6.66v13.34h6.67V503.33" transform="translate(-752.46 -496.67)"/></svg>