<svg id="图层_1" data-name="图层 1" xmlns="http://www.w3.org/2000/svg" viewBox="0 0 99.05 100"><path d="M270.75,179H264.6l-4.39-11.78H242.27L238.14,179H232l16.4-43.06h6Zm-12.26-16.65L252,144.44a20.46,20.46,0,0,1-.67-3h-.14a16.43,16.43,0,0,1-.69,3L244,162.34Zm40.06,73.59V192.39h15.13q6.78,0,10.82,2.74a8.4,8.4,0,0,1,4.06,7.27,9.34,9.34,0,0,1-2.41,6.35,13.14,13.14,0,0,1-6.64,3.91v.11a14.16,14.16,0,0,1,8.4,3.36,9.38,9.38,0,0,1,3.13,7.24,10.75,10.75,0,0,1-4.76,9.1c-3.16,2.3-7.24,3.46-12.2,3.46Zm6.66-38.62v13.63h6.05a12.71,12.71,0,0,0,7.56-2,6.39,6.39,0,0,0,2.74-5.49q0-6.15-9.7-6.15h-6.65Zm0,18.53V231h8q5.2,0,8.06-2a6.57,6.57,0,0,0,2.84-5.66q0-7.47-12-7.47Zm-31.15,8.77.71-4.2a38.88,38.88,0,0,1-29.18-34.3h7.12a32.09,32.09,0,0,0,23.34,27.33l1.07-6,13.31,11.24Z" transform="translate(-231.99 -135.93)"/></svg>