<svg id="图层_1" data-name="图层 1" xmlns="http://www.w3.org/2000/svg" viewBox="0 0 83.56 100"><defs><style>.cls-1{fill:#fff;stroke:#000;stroke-miterlimit:10;stroke-width:0.75px;}</style></defs><rect x="58.56" y="17.84" width="25" height="67.43"/><rect y="17.84" width="25" height="67.43"/><rect class="cls-1" x="29.57" y="18.72" width="25" height="65.65"/><path d="M267.94,136.35l1.62,2.67a28.51,28.51,0,0,1,32.63,5l-3.95,3.41a23.54,23.54,0,0,0-26.05-4l2.28,3.83-12.77.14Z" transform="translate(-239.74 -136)"/><path d="M278.53,235.45l-1.41-2.22a24,24,0,0,1-27.54-3.67l3.26-2.94a19.8,19.8,0,0,0,22,2.89l-2-3.18,10.75-.35Z" transform="translate(-239.74 -136)"/></svg>