<svg id="图层_1" data-name="图层 1" xmlns="http://www.w3.org/2000/svg" viewBox="0 0 100 110.24"><path d="M765.05,539.3a3.23,3.23,0,0,1-1.24,0,3.8,3.8,0,0,1-2.54-4.75s0-.1.05-.15l15.55-46.64a3.75,3.75,0,0,1,7.23-.24l15.55,46.65a3.82,3.82,0,0,1-2,5l-.29.11a3.88,3.88,0,0,1-5-2.37v0l-12-35.84L768.7,536.66A3.8,3.8,0,0,1,765.05,539.3Z" transform="translate(-760.85 -484.88)"/><path d="M788.37,523.75H772.82a3.89,3.89,0,0,1,0-7.77h15.55a3.89,3.89,0,1,1,0,7.77Z" transform="translate(-760.85 -484.88)"/><path d="M796.15,594.25h-31.1a3.88,3.88,0,0,1-2.64-6.3l25.65-32.57H764.74a3.89,3.89,0,0,1,0-7.78h31.1a3.87,3.87,0,0,1,3,6.3l-25.73,32.57h23.32a3.89,3.89,0,0,1,0,7.78Z" transform="translate(-760.85 -484.88)"/><path d="M835,588.67a3.89,3.89,0,0,1-3.89-3.89V491.49a3.89,3.89,0,0,1,7.78,0v93.29A3.89,3.89,0,0,1,835,588.67Z" transform="translate(-760.85 -484.88)"/><path d="M835,595.12a3.93,3.93,0,0,1-2.8-1.17l-22-22a3.87,3.87,0,0,1,5.5-5.46l0,0L835,585.71l19.2-19.2a3.9,3.9,0,0,1,5.5,0l0,0a3.89,3.89,0,0,1,0,5.44l-22,22A3.85,3.85,0,0,1,835,595.12Z" transform="translate(-760.85 -484.88)"/></svg>