<svg id="图层_1" data-name="图层 1" xmlns="http://www.w3.org/2000/svg" viewBox="0 0 100 99.67"><path d="M649.9,563.88a3.2,3.2,0,0,0-3.12-3.12H615.63a3.2,3.2,0,0,0-3.11,3.12v22.84a3.19,3.19,0,0,0,3.11,3.11h31.15a3.2,3.2,0,0,0,3.12-3.11Zm-24.71-32.19H615c-2.08,0-3.11,1.87-1.87,2.91l16.61,17.24a2.51,2.51,0,0,0,2.91,0l16.61-17.24c1.25-1.24.21-2.91-1.87-2.91h-9.76c0-10.38,10.18-20.76,20.56-20.76V498.47C639.51,498.47,625.19,513,625.19,531.69Zm70-3.53a2.49,2.49,0,0,0-2.9,0L675.64,545.4c-1.24,1.24-.2,2.91,1.87,2.91h10c0,12.45-8.51,20.76-21,20.76v12.46a33,33,0,0,0,33.43-33.22h10.17c2.08,0,3.12-1.87,1.87-2.91l-16.82-17.24Zm17-34.88a3.19,3.19,0,0,0-3.12-3.11H677.93a3.2,3.2,0,0,0-3.12,3.11v22.84a3.2,3.2,0,0,0,3.12,3.12h31.14a3.2,3.2,0,0,0,3.12-3.12Z" transform="translate(-612.52 -490.17)"/></svg>